<svg xmlns="http://www.w3.org/2000/svg" viewBox="0 0 800 1000" width="800" height="1000">
  <title>Terminal Profile</title>
  <desc>Developer terminal profile generated with terminal-profile</desc>
  <style>
    
    
    :root {
      --bg: #1F1F28;
      --bg-tmux: #2A2A37;
      --text: #DCD7BA;
      --text-muted: #727169;
      --text-secondary: #C8C093;
      --border: #2A2A37;
      --selection: #223249;

      /* Palette */
      --green: #98BB6C;
      --green-muted: #76946A;
      --blue: #7E9CD8;
      --violet: #957FB8;
      --yellow: #FF9E3B;
      --orange: #FFA066;
      --red: #E82424;
      --crystal: #658594;
    }
  

    /* Base Styles */
    .background {
      fill: var(--bg);
      stroke: var(--border);
      stroke-width: 2px;
    }

    .terminal-text {
      font-family: 'Monaspace Neon', 'JetBrains Mono', 'Fira Code', monospace;
      font-size: 14px;
      dominant-baseline: middle;
    }

    /* Animations */
    @keyframes blink {
      0%, 100% { opacity: 1; }
      50% { opacity: 0; }
    }

    .cursor {
      fill: var(--green);
      animation: blink 1s step-end infinite;
    }

    /* tmux Status Bar */
    .tmux__bg { fill: var(--bg-tmux); }
    .tmux__left { fill: var(--text-muted); }
    .tmux__center { fill: var(--yellow); }
    .tmux__right { fill: var(--blue); }

    /* Starship Prompt */
    .prompt__dir { fill: var(--blue); font-weight: bold; }
    .prompt__arrow { fill: var(--green); }
    .prompt__git { fill: var(--violet); }
    .prompt__node { fill: var(--green-muted); }
    .prompt__nix { fill: var(--crystal); }
    .prompt__time { fill: var(--text-muted); font-size: 12px; }
    .prompt__indicator { fill: var(--green); }

    /* Developer Info */
    .dev__username { fill: var(--text); font-weight: bold; font-size: 16px; }
    .dev__role { fill: var(--text-secondary); }
    .dev__bio { fill: var(--text); }
    .dev__location { fill: var(--text-muted); font-size: 12px; }

    /* Tech Stack */
    .stack__title { fill: var(--violet); }

    /* Recent Commits */
    .commit__msg { fill: var(--text); }
    .commit__time { fill: var(--text-muted); font-size: 12px; }
    .commit__type--feat { fill: var(--green); }
    .commit__type--fix { fill: var(--red); }
    .commit__type--docs { fill: var(--blue); }
    .commit__type--style { fill: var(--violet); }
    .commit__type--refactor { fill: var(--orange); }
    .commit__type--test { fill: var(--yellow); }
    .commit__type--chore { fill: var(--text-muted); }

    /* Streak */
    .streak__count { fill: var(--orange); font-weight: bold; }

    /* Footer */
    .footer__text { fill: var(--text-muted); font-size: 10px; }

    
  
  </style>

  <defs>
<linearGradient id="skill-gradient-0" x1="0%" y1="0%" x2="100%" y2="0%">
      <stop offset="0%" stop-color="#7FB4CA" />
      <stop offset="100%" stop-color="#957FB8" />
    </linearGradient>
<filter id="glow" x="-50%" y="-50%" width="200%" height="200%">
      <feGaussianBlur stdDeviation="2" result="blur" />
      <feMerge>
        <feMergeNode in="blur" />
        <feMergeNode in="SourceGraphic" />
      </feMerge>
    </filter>

@keyframes typing {
  from { width: 0 }
  to { width: 100% }
}
@keyframes blink-caret {
  from, to { border-color: transparent }
  50% { border-color: var(--cursor) }
}

<style>
    
    :root {
      --bg: #1F1F28;
      --bg-tmux: #2A2A37;
      --text: #DCD7BA;
      --text-muted: #727169;
      --text-secondary: #C8C093;
      --border: #2A2A37;
      --selection: #223249;

      /* Palette */
      --green: #98BB6C;
      --green-muted: #76946A;
      --blue: #7E9CD8;
      --violet: #957FB8;
      --yellow: #FF9E3B;
      --orange: #FFA066;
      --red: #E82424;
      --crystal: #658594;
    }
  

    /* Base Styles */
    .background {
      fill: var(--bg);
      stroke: var(--border);
      stroke-width: 2px;
    }

    .terminal-text {
      font-family: 'Monaspace Neon', 'JetBrains Mono', 'Fira Code', monospace;
      font-size: 14px;
      dominant-baseline: middle;
    }

    /* Animations */
    @keyframes blink {
      0%, 100% { opacity: 1; }
      50% { opacity: 0; }
    }

    .cursor {
      fill: var(--green);
      animation: blink 1s step-end infinite;
    }

    /* tmux Status Bar */
    .tmux__bg { fill: var(--bg-tmux); }
    .tmux__left { fill: var(--text-muted); }
    .tmux__center { fill: var(--yellow); }
    .tmux__right { fill: var(--blue); }

    /* Starship Prompt */
    .prompt__dir { fill: var(--blue); font-weight: bold; }
    .prompt__arrow { fill: var(--green); }
    .prompt__git { fill: var(--violet); }
    .prompt__node { fill: var(--green-muted); }
    .prompt__nix { fill: var(--crystal); }
    .prompt__time { fill: var(--text-muted); font-size: 12px; }
    .prompt__indicator { fill: var(--green); }

    /* Developer Info */
    .dev__username { fill: var(--text); font-weight: bold; font-size: 16px; }
    .dev__role { fill: var(--text-secondary); }
    .dev__bio { fill: var(--text); }
    .dev__location { fill: var(--text-muted); font-size: 12px; }

    /* Tech Stack */
    .stack__title { fill: var(--violet); }

    /* Recent Commits */
    .commit__msg { fill: var(--text); }
    .commit__time { fill: var(--text-muted); font-size: 12px; }
    .commit__type--feat { fill: var(--green); }
    .commit__type--fix { fill: var(--red); }
    .commit__type--docs { fill: var(--blue); }
    .commit__type--style { fill: var(--violet); }
    .commit__type--refactor { fill: var(--orange); }
    .commit__type--test { fill: var(--yellow); }
    .commit__type--chore { fill: var(--text-muted); }

    /* Streak */
    .streak__count { fill: var(--orange); font-weight: bold; }

    /* Footer */
    .footer__text { fill: var(--text-muted); font-size: 10px; }

    
    /* Animation Variables */
    :root {
      --animation-speed: 1;
      --typing-duration: 2s;
      --fade-duration: 0.3s;
    }

    /* Fade In Effect */
    @keyframes fadeIn {
      from { opacity: 0; }
      to { opacity: 1; }
    }

    /* Fade In for Output (opacity only to preserve SVG transforms) */
    @keyframes fadeInOutput {
      from { opacity: 0; }
      to { opacity: 1; }
    }

    /* Command Line Styling - text is revealed via animated clipPath */
    .command-line {
      font-family: 'Monaspace Neon', 'JetBrains Mono', monospace;
      font-size: 14px;
    }

    /* Output Styling */
    .command-output {
      opacity: 0;
    }

    .command-output.animate {
      animation: fadeInOutput var(--fade-duration) ease-out forwards;
    }

    /* Prompt - visible by default, sequence controlled by animation-delay */
    .command-prompt {
      opacity: 0;
    }

    .command-prompt.animate {
      animation: fadeIn 0.01s forwards;
    }
  
  </style>
</defs>

  <!-- Background with Ghostty-like border -->
  <rect width="100%" height="100%" class="background" rx="10" ry="10" />

  <!-- Layers -->
  <g id="tmux-bar" transform="translate(0, 0)">
      <!-- Base Background -->
      <rect width="100%" height="24" fill="#2A2A37" class="tmux__bg" />

      <!-- Segments -->
      
    <rect x="0" y="0" width="78" height="24" fill="#16161D" />
    <text x="39" y="13" fill="#727169" font-family="monospace" font-size="12" text-anchor="middle" dominant-baseline="middle" font-weight="bold">
       👻 dev 
    </text>
  

    <rect x="78" y="0" width="72" height="24" fill="#2A2A37" />
    <text x="114" y="13" fill="#DCD7BA" font-family="monospace" font-size="12" text-anchor="middle" dominant-baseline="middle" font-weight="bold">
      1 zsh
    </text>
  

    <rect x="512" y="0" width="88" height="24" fill="#938AA9" />
    <text x="556" y="13" fill="#363646" font-family="monospace" font-size="12" text-anchor="middle" dominant-baseline="middle" font-weight="bold">
      ! 1M main
    </text>
  

    <rect x="600" y="0" width="72" height="24" fill="#DCA561" />
    <text x="636" y="13" fill="#363646" font-family="monospace" font-size="12" text-anchor="middle" dominant-baseline="middle" font-weight="bold">
      CPU 12%
    </text>
  

    <rect x="672" y="0" width="128" height="24" fill="#6a9589" />
    <text x="736" y="13" fill="#363646" font-family="monospace" font-size="12" text-anchor="middle" dominant-baseline="middle" font-weight="bold">
      RAM 17GB/96 GB
    </text>
  
    </g>
<defs>
    <clipPath id="terminal-viewport">
      <rect x="0" y="24" width="800" height="952" />
    </clipPath>
    
  </defs>

  <g clip-path="url(#terminal-viewport)">
    <g id="scrollable-content" class="terminal-scroll" transform="translate(0, 24)">
      <g class="command-prompt animate" style="animation-delay: 0.1s">
    <text x="10" y="20" fill="#658594" font-family="monospace" font-size="14" font-weight="bold">~/github/profile</text>
<text x="156" y="20" fill="#727169" font-family="monospace" font-size="14" font-weight="bold">→</text>
<text x="176" y="20" fill="#957FB8" font-family="monospace" font-size="14">git:main </text>
    <text x="780" y="20" fill="#727169" font-family="monospace" font-size="14" text-anchor="end" font-weight="normal">10:11</text>
<text x="727.5" y="20" fill="#658594" font-family="monospace" font-size="14" text-anchor="end" font-weight="normal">nix</text>
<text x="692" y="20" fill="#DCD7BA" font-family="monospace" font-size="14" text-anchor="end" font-weight="bold">❄️</text>
<text x="665" y="20" fill="#727169" font-family="monospace" font-size="14" text-anchor="end" font-weight="normal">*</text>
<text x="646.5" y="20" fill="#76946A" font-family="monospace" font-size="14" text-anchor="end" font-weight="normal">v24.13.0</text>
<text x="568.5" y="20" fill="#76946A" font-family="monospace" font-size="14" text-anchor="end" font-weight="bold">node</text>
<text x="524.5" y="20" fill="#76946A" font-family="monospace" font-size="14" text-anchor="end" font-weight="bold">⬢</text>
  </g>

    <defs>
      <clipPath id="typing-clip-0">
        <rect x="10" y="26" width="0" height="20">
          <animate
            attributeName="width"
            from="0"
            to="84"
            dur="1.3s"
            begin="0.30000000000000004s"
            fill="freeze"
            calcMode="discrete"
            keyTimes="0;0.1;0.2;0.3;0.4;0.5;0.6;0.7;0.8;0.9;1"
            values="8.4;16.8;25.200000000000003;33.6;42;50.4;58.800000000000004;67.2;75.60000000000001;84.00000000000001;92.4"
          />
        </rect>
      </clipPath>
    </defs>
<text
    x="10"
    y="40"
    class="command-line terminal-text"
    fill="#DCD7BA"
    font-family="monospace"
    font-size="14"
    clip-path="url(#typing-clip-0)"
  >$ neofetch</text>

  <rect
    id="cursor-0"
    x="10"
    y="28"
    width="2"
    height="16"
    fill="#98BB6C"
    opacity="0"
  >
    <!-- Show cursor when typing starts -->
    <animate
      attributeName="opacity"
      from="0"
      to="1"
      dur="0.01s"
      begin="0.30000000000000004s"
      fill="freeze"
    />
    <!-- Animate cursor position jumping with each character -->
    <animate
      attributeName="x"
      dur="1.3s"
      begin="0.30000000000000004s"
      fill="freeze"
      calcMode="discrete"
      keyTimes="0;0.1;0.2;0.3;0.4;0.5;0.6;0.7;0.8;0.9;1"
      values="18.4;26.799999999999997;35.2;43.6;52;60.4;68.80000000000001;77.20000000000002;85.60000000000001;94.00000000000001;102.4"
    />
    <!-- Blink animation while typing -->
    <animate
      attributeName="opacity"
      values="1;0;1"
      dur="1s"
      begin="0.30000000000000004s"
      end="1.6s"
      repeatCount="indefinite"
    />
    <!-- Hide cursor when typing completes -->
    <set
      attributeName="opacity"
      to="0"
      begin="1.6s"
      fill="freeze"
    />
  </rect>
<g
    class="command-output animate"
    style="animation-delay: 1.6s"
    transform="translate(10, 0)"
  ><g id="neofetch" transform="translate(0, 53)"><g class="neofetch__logo"><svg x="0" y="0" width="130" height="130" viewBox="0 0 501.56 501.56"><g transform="translate(-156.41, 933.31)"><g transform="matrix(0.99994,0,0,0.99994,-0.063,33.188)"><g fill="#7FB4CA"><path d="m 309.549,-710.388 122.197,211.675 -56.157,0.527 -32.624,-56.869 -32.856,56.565 -27.902,-0.011 -14.291,-24.69 46.81,-80.49 -33.229,-57.826 z" /><path d="m 309.549,-710.388 122.197,211.675 -56.157,0.527 -32.624,-56.869 -32.856,56.565 -27.902,-0.011 -14.291,-24.69 46.81,-80.49 -33.229,-57.826 z" transform="rotate(60, 407.112, -715.787)" /><path d="m 309.549,-710.388 122.197,211.675 -56.157,0.527 -32.624,-56.869 -32.856,56.565 -27.902,-0.011 -14.291,-24.69 46.81,-80.49 -33.229,-57.826 z" transform="rotate(-60, 407.312, -715.7)" /></g><g fill="#6a9589"><path d="m 309.549,-710.388 122.197,211.675 -56.157,0.527 -32.624,-56.869 -32.856,56.565 -27.902,-0.011 -14.291,-24.69 46.81,-80.49 -33.229,-57.826 z" transform="rotate(180, 407.419, -715.757)" /><path d="m 309.549,-710.388 122.197,211.675 -56.157,0.527 -32.624,-56.869 -32.856,56.565 -27.902,-0.011 -14.291,-24.69 46.81,-80.49 -33.229,-57.826 z" transform="rotate(120, 407.339, -716.084)" /><path d="m 309.549,-710.388 122.197,211.675 -56.157,0.527 -32.624,-56.869 -32.856,56.565 -27.902,-0.011 -14.291,-24.69 46.81,-80.49 -33.229,-57.826 z" transform="rotate(-120, 407.288, -715.87)" /></g></g></g></svg></g><g class="neofetch__info" transform="translate(0, 15)"><text x="150" y="0" fill="#7FB4CA" font-family="monospace" font-size="14" font-weight="bold">@aytordev</text>
<text x="150" y="18" fill="#727169" font-family="monospace" font-size="12">───────────────────</text>
<text x="150" y="36" fill="#C8C093" font-family="monospace" font-size="12">I build teams and the systems they ship · 📍 Madrid, Spain</text>
<text x="150" y="54" font-family="monospace" font-size="12"><tspan fill="#7FB4CA" font-weight="bold">OS</tspan><tspan fill="#DCD7BA">: macOS Tahoe 26.2</tspan><tspan fill="#727169"> · </tspan><tspan fill="#7FB4CA" font-weight="bold">Shell</tspan><tspan fill="#DCD7BA">: fish</tspan></text>
<text x="150" y="72" font-family="monospace" font-size="12"><tspan fill="#7FB4CA" font-weight="bold">Editor</tspan><tspan fill="#DCD7BA">: neovim · vscode · zed</tspan><tspan fill="#727169"> · </tspan><tspan fill="#7FB4CA" font-weight="bold">Terminal</tspan><tspan fill="#DCD7BA">: ghostty</tspan></text>
<text x="150" y="90" font-family="monospace" font-size="12"><tspan fill="#7FB4CA" font-weight="bold">Theme</tspan><tspan fill="#DCD7BA">: Kanagawa 🌊</tspan></text>
<text x="150" y="108" font-family="monospace" font-size="12"><tspan fill="#E6C384">📊 Commits 1787</tspan><tspan fill="#727169">  </tspan><tspan fill="#FFA066">🔥 Streak 1d</tspan><tspan fill="#727169">  </tspan><tspan fill="#98BB6C">📦 Repos 2</tspan></text></g></g></g>
<g class="command-prompt animate" style="animation-delay: 2.3000000000000003s">
    <text x="10" y="206" fill="#658594" font-family="monospace" font-size="14" font-weight="bold">~/github/profile</text>
<text x="156" y="206" fill="#727169" font-family="monospace" font-size="14" font-weight="bold">→</text>
<text x="176" y="206" fill="#957FB8" font-family="monospace" font-size="14">git:main </text>
    <text x="780" y="206" fill="#727169" font-family="monospace" font-size="14" text-anchor="end" font-weight="normal">10:11</text>
<text x="727.5" y="206" fill="#658594" font-family="monospace" font-size="14" text-anchor="end" font-weight="normal">nix</text>
<text x="692" y="206" fill="#DCD7BA" font-family="monospace" font-size="14" text-anchor="end" font-weight="bold">❄️</text>
<text x="665" y="206" fill="#727169" font-family="monospace" font-size="14" text-anchor="end" font-weight="normal">*</text>
<text x="646.5" y="206" fill="#76946A" font-family="monospace" font-size="14" text-anchor="end" font-weight="normal">v24.13.0</text>
<text x="568.5" y="206" fill="#76946A" font-family="monospace" font-size="14" text-anchor="end" font-weight="bold">node</text>
<text x="524.5" y="206" fill="#76946A" font-family="monospace" font-size="14" text-anchor="end" font-weight="bold">⬢</text>
  </g>

    <defs>
      <clipPath id="typing-clip-1">
        <rect x="10" y="212" width="0" height="20">
          <animate
            attributeName="width"
            from="0"
            to="134.4"
            dur="2.019999999999999s"
            begin="2.5000000000000004s"
            fill="freeze"
            calcMode="discrete"
            keyTimes="0;0.0625;0.125;0.1875;0.25;0.3125;0.375;0.4375;0.5;0.5625;0.625;0.6875;0.75;0.8125;0.875;0.9375;1"
            values="8.4;16.8;25.200000000000003;33.6;42;50.4;58.800000000000004;67.2;75.60000000000001;84.00000000000001;92.4;100.80000000000001;109.20000000000002;117.60000000000001;126.00000000000001;134.4;142.8"
          />
        </rect>
      </clipPath>
    </defs>
<text
    x="10"
    y="226"
    class="command-line terminal-text"
    fill="#DCD7BA"
    font-family="monospace"
    font-size="14"
    clip-path="url(#typing-clip-1)"
  >$ cat journey.md</text>

  <rect
    id="cursor-1"
    x="10"
    y="214"
    width="2"
    height="16"
    fill="#98BB6C"
    opacity="0"
  >
    <!-- Show cursor when typing starts -->
    <animate
      attributeName="opacity"
      from="0"
      to="1"
      dur="0.01s"
      begin="2.5000000000000004s"
      fill="freeze"
    />
    <!-- Animate cursor position jumping with each character -->
    <animate
      attributeName="x"
      dur="2.019999999999999s"
      begin="2.5000000000000004s"
      fill="freeze"
      calcMode="discrete"
      keyTimes="0;0.0625;0.125;0.1875;0.25;0.3125;0.375;0.4375;0.5;0.5625;0.625;0.6875;0.75;0.8125;0.875;0.9375;1"
      values="18.4;26.799999999999997;35.2;43.6;52;60.4;68.80000000000001;77.20000000000002;85.60000000000001;94.00000000000001;102.4;110.80000000000001;119.20000000000002;127.60000000000001;136;144.4;152.8"
    />
    <!-- Blink animation while typing -->
    <animate
      attributeName="opacity"
      values="1;0;1"
      dur="1s"
      begin="2.5000000000000004s"
      end="4.52s"
      repeatCount="indefinite"
    />
    <!-- Hide cursor when typing completes -->
    <set
      attributeName="opacity"
      to="0"
      begin="4.52s"
      fill="freeze"
    />
  </rect>
<g
    class="command-output animate"
    style="animation-delay: 4.52s"
    transform="translate(10, 0)"
  ><g id="journey" transform="translate(0, 251)"><g transform="translate(0, 0)"><text x="0" y="0" font-family="monospace" font-size="14">🌱</text>
<text x="24" y="0" fill="#E6C384" font-family="monospace" font-size="12" font-weight="bold">2017</text>
<text x="80" y="0" fill="#DCD7BA" font-family="monospace" font-size="12">Hello World (in Java, of all things)</text>
<rect x="356" y="-12" width="40" height="16" rx="3" fill="#363646"/><text x="362" y="0" fill="#6a9589" font-family="monospace" font-size="10">Java</text>
<rect x="404" y="-12" width="54" height="16" rx="3" fill="#363646"/><text x="410" y="0" fill="#6a9589" font-family="monospace" font-size="10">Spring</text></g>
<g transform="translate(0, 24)"><text x="0" y="0" font-family="monospace" font-size="14">🔄</text>
<text x="24" y="0" fill="#E6C384" font-family="monospace" font-size="12" font-weight="bold">2019</text>
<text x="80" y="0" fill="#DCD7BA" font-family="monospace" font-size="12">The browser changed everything</text>
<rect x="356" y="-12" width="33" height="16" rx="3" fill="#363646"/><text x="362" y="0" fill="#6a9589" font-family="monospace" font-size="10">Vue</text>
<rect x="397" y="-12" width="82" height="16" rx="3" fill="#363646"/><text x="403" y="0" fill="#6a9589" font-family="monospace" font-size="10">TypeScript</text></g>
<g transform="translate(0, 48)"><text x="0" y="0" font-family="monospace" font-size="14">🚀</text>
<text x="24" y="0" fill="#E6C384" font-family="monospace" font-size="12" font-weight="bold">2020</text>
<text x="80" y="0" fill="#DCD7BA" font-family="monospace" font-size="12">First time someone reported to me</text>
<rect x="356" y="-12" width="47" height="16" rx="3" fill="#363646"/><text x="362" y="0" fill="#6a9589" font-family="monospace" font-size="10">CI/CD</text>
<rect x="411" y="-12" width="61" height="16" rx="3" fill="#363646"/><text x="417" y="0" fill="#6a9589" font-family="monospace" font-size="10">Testing</text>
<rect x="480" y="-12" width="75" height="16" rx="3" fill="#363646"/><text x="486" y="0" fill="#6a9589" font-family="monospace" font-size="10">Mentoring</text></g>
<g transform="translate(0, 72)"><text x="0" y="0" font-family="monospace" font-size="14">🏗️</text>
<text x="24" y="0" fill="#E6C384" font-family="monospace" font-size="12" font-weight="bold">2022</text>
<text x="80" y="0" fill="#DCD7BA" font-family="monospace" font-size="12">A blank repo and a team to build</text>
<rect x="356" y="-12" width="103" height="16" rx="3" fill="#363646"/><text x="362" y="0" fill="#6a9589" font-family="monospace" font-size="10">Design System</text>
<rect x="467" y="-12" width="33" height="16" rx="3" fill="#363646"/><text x="473" y="0" fill="#6a9589" font-family="monospace" font-size="10">Vue</text>
<rect x="508" y="-12" width="61" height="16" rx="3" fill="#363646"/><text x="514" y="0" fill="#6a9589" font-family="monospace" font-size="10">Testing</text></g>
<g transform="translate(0, 96)"><text x="0" y="0" font-family="monospace" font-size="14">⚡</text>
<text x="24" y="0" fill="#E6C384" font-family="monospace" font-size="12" font-weight="bold">2026</text>
<text x="80" y="0" fill="#DCD7BA" font-family="monospace" font-size="12">Now the architecture serves millions</text>
<rect x="356" y="-12" width="26" height="16" rx="3" fill="#363646"/><text x="362" y="0" fill="#6a9589" font-family="monospace" font-size="10">AI</text>
<rect x="390" y="-12" width="33" height="16" rx="3" fill="#363646"/><text x="396" y="0" fill="#6a9589" font-family="monospace" font-size="10">LLM</text>
<rect x="431" y="-12" width="54" height="16" rx="3" fill="#363646"/><text x="437" y="0" fill="#6a9589" font-family="monospace" font-size="10">Agents</text>
<rect x="493" y="-12" width="54" height="16" rx="3" fill="#363646"/><text x="499" y="0" fill="#6a9589" font-family="monospace" font-size="10">Skills</text>
<rect x="555" y="-12" width="54" height="16" rx="3" fill="#363646"/><text x="561" y="0" fill="#6a9589" font-family="monospace" font-size="10">NodeJS</text></g></g></g>
<g class="command-prompt animate" style="animation-delay: 5.220000000000001s">
    <text x="10" y="374" fill="#658594" font-family="monospace" font-size="14" font-weight="bold">~/github/profile</text>
<text x="156" y="374" fill="#727169" font-family="monospace" font-size="14" font-weight="bold">→</text>
<text x="176" y="374" fill="#957FB8" font-family="monospace" font-size="14">git:main </text>
    <text x="780" y="374" fill="#727169" font-family="monospace" font-size="14" text-anchor="end" font-weight="normal">10:11</text>
<text x="727.5" y="374" fill="#658594" font-family="monospace" font-size="14" text-anchor="end" font-weight="normal">nix</text>
<text x="692" y="374" fill="#DCD7BA" font-family="monospace" font-size="14" text-anchor="end" font-weight="bold">❄️</text>
<text x="665" y="374" fill="#727169" font-family="monospace" font-size="14" text-anchor="end" font-weight="normal">*</text>
<text x="646.5" y="374" fill="#76946A" font-family="monospace" font-size="14" text-anchor="end" font-weight="normal">v24.13.0</text>
<text x="568.5" y="374" fill="#76946A" font-family="monospace" font-size="14" text-anchor="end" font-weight="bold">node</text>
<text x="524.5" y="374" fill="#76946A" font-family="monospace" font-size="14" text-anchor="end" font-weight="bold">⬢</text>
  </g>

    <defs>
      <clipPath id="typing-clip-2">
        <rect x="10" y="380" width="0" height="20">
          <animate
            attributeName="width"
            from="0"
            to="117.60000000000001"
            dur="1.7799999999999994s"
            begin="5.420000000000001s"
            fill="freeze"
            calcMode="discrete"
            keyTimes="0;0.07142857142857142;0.14285714285714285;0.21428571428571427;0.2857142857142857;0.35714285714285715;0.42857142857142855;0.5;0.5714285714285714;0.6428571428571429;0.7142857142857143;0.7857142857142857;0.8571428571428571;0.9285714285714286;1"
            values="8.4;16.8;25.200000000000003;33.6;42;50.4;58.800000000000004;67.2;75.60000000000001;84.00000000000001;92.4;100.80000000000001;109.20000000000002;117.60000000000001;126.00000000000001"
          />
        </rect>
      </clipPath>
    </defs>
<text
    x="10"
    y="394"
    class="command-line terminal-text"
    fill="#DCD7BA"
    font-family="monospace"
    font-size="14"
    clip-path="url(#typing-clip-2)"
  >$ cat ~/.stack</text>

  <rect
    id="cursor-2"
    x="10"
    y="382"
    width="2"
    height="16"
    fill="#98BB6C"
    opacity="0"
  >
    <!-- Show cursor when typing starts -->
    <animate
      attributeName="opacity"
      from="0"
      to="1"
      dur="0.01s"
      begin="5.420000000000001s"
      fill="freeze"
    />
    <!-- Animate cursor position jumping with each character -->
    <animate
      attributeName="x"
      dur="1.7799999999999994s"
      begin="5.420000000000001s"
      fill="freeze"
      calcMode="discrete"
      keyTimes="0;0.07142857142857142;0.14285714285714285;0.21428571428571427;0.2857142857142857;0.35714285714285715;0.42857142857142855;0.5;0.5714285714285714;0.6428571428571429;0.7142857142857143;0.7857142857142857;0.8571428571428571;0.9285714285714286;1"
      values="18.4;26.799999999999997;35.2;43.6;52;60.4;68.80000000000001;77.20000000000002;85.60000000000001;94.00000000000001;102.4;110.80000000000001;119.20000000000002;127.60000000000001;136"
    />
    <!-- Blink animation while typing -->
    <animate
      attributeName="opacity"
      values="1;0;1"
      dur="1s"
      begin="5.420000000000001s"
      end="7.2s"
      repeatCount="indefinite"
    />
    <!-- Hide cursor when typing completes -->
    <set
      attributeName="opacity"
      to="0"
      begin="7.2s"
      fill="freeze"
    />
  </rect>
<g
    class="command-output animate"
    style="animation-delay: 7.2s"
    transform="translate(10, 0)"
  ><g id="tech-stack" transform="translate(0, 407)">
<g transform="translate(0, 0)">
<text x="0" y="16" class="stack__title" fill="#957FB8" font-family="monospace" font-size="14" font-weight="bold">Languages</text>
<svg x="100" y="0" width="22" height="22" viewBox="0 0 24 24"><path d="M1.125 0C.502 0 0 .502 0 1.125v21.75C0 23.498.502 24 1.125 24h21.75c.623 0 1.125-.502 1.125-1.125V1.125C24 .502 23.498 0 22.875 0zm17.363 9.75c.612 0 1.154.037 1.627.111a6.38 6.38 0 0 1 1.306.34v2.458a3.95 3.95 0 0 0-.643-.361 5.093 5.093 0 0 0-.717-.26 5.453 5.453 0 0 0-1.426-.2c-.3 0-.573.028-.819.086a2.1 2.1 0 0 0-.623.242c-.17.104-.3.229-.393.374a.888.888 0 0 0-.14.49c0 .196.053.373.156.529.104.156.252.304.443.444s.423.276.696.41c.273.135.582.274.926.416.47.197.892.407 1.266.628.374.222.695.473.963.753.268.279.472.598.614.957.142.359.214.776.214 1.253 0 .657-.125 1.21-.373 1.656a3.033 3.033 0 0 1-1.012 1.085 4.38 4.38 0 0 1-1.487.596c-.566.12-1.163.18-1.79.18a9.916 9.916 0 0 1-1.84-.164 5.544 5.544 0 0 1-1.512-.493v-2.63a5.033 5.033 0 0 0 3.237 1.2c.333 0 .624-.03.872-.09.249-.06.456-.144.623-.25.166-.108.29-.234.373-.38a1.023 1.023 0 0 0-.074-1.089 2.12 2.12 0 0 0-.537-.5 5.597 5.597 0 0 0-.807-.444 27.72 27.72 0 0 0-1.007-.436c-.918-.383-1.602-.852-2.053-1.405-.45-.553-.676-1.222-.676-2.005 0-.614.123-1.141.369-1.582.246-.441.58-.804 1.004-1.089a4.494 4.494 0 0 1 1.47-.629 7.536 7.536 0 0 1 1.77-.201zm-15.113.188h9.563v2.166H9.506v9.646H6.789v-9.646H3.375z" fill="#3178C6"/></svg>
<svg x="130" y="0" width="22" height="22" viewBox="0 0 24 24"><path d="M0 0h24v24H0V0zm22.034 18.276c-.175-1.095-.888-2.015-3.003-2.873-.736-.345-1.554-.585-1.797-1.14-.091-.33-.105-.51-.046-.705.15-.646.915-.84 1.515-.66.39.12.75.42.976.9 1.034-.676 1.034-.676 1.755-1.125-.27-.42-.404-.601-.586-.78-.63-.705-1.469-1.065-2.834-1.034l-.705.089c-.676.165-1.32.525-1.71 1.005-1.14 1.291-.811 3.541.569 4.471 1.365 1.02 3.361 1.244 3.616 2.205.24 1.17-.87 1.545-1.966 1.41-.811-.18-1.26-.586-1.755-1.336l-1.83 1.051c.21.48.45.689.81 1.109 1.74 1.756 6.09 1.666 6.871-1.004.029-.09.24-.705.074-1.65l.046.067zm-8.983-7.245h-2.248c0 1.938-.009 3.864-.009 5.805 0 1.232.063 2.363-.138 2.711-.33.689-1.18.601-1.566.48-.396-.196-.597-.466-.83-.855-.063-.105-.11-.196-.127-.196l-1.825 1.125c.305.63.75 1.172 1.324 1.517.855.51 2.004.675 3.207.405.783-.226 1.458-.691 1.811-1.411.51-.93.402-2.07.397-3.346.012-2.054 0-4.109 0-6.179l.004-.056z" fill="#F7DF1E"/></svg>
<svg x="160" y="0" width="22" height="22" viewBox="0 0 24 24"><path d="M14.25.18l.9.2.73.26.59.3.45.32.34.34.25.34.16.33.1.3.04.26.02.2-.01.13V8.5l-.05.63-.13.55-.21.46-.26.38-.3.31-.33.25-.35.19-.35.14-.33.1-.3.07-.26.04-.21.02H8.77l-.69.05-.59.14-.5.22-.41.27-.33.32-.27.35-.2.36-.15.37-.1.35-.07.32-.04.27-.02.21v3.06H3.17l-.21-.03-.28-.07-.32-.12-.35-.18-.36-.26-.36-.36-.35-.46-.32-.59-.28-.73-.21-.88-.14-1.05-.05-1.23.06-1.22.16-1.04.24-.87.32-.71.36-.57.4-.44.42-.33.42-.24.4-.16.36-.1.32-.05.24-.01h.16l.06.01h8.16v-.83H6.18l-.01-2.75-.02-.37.05-.34.11-.31.17-.28.25-.26.31-.23.38-.2.44-.18.51-.15.58-.12.64-.1.71-.06.77-.04.84-.02 1.27.05zm-6.3 1.98l-.23.33-.08.41.08.41.23.34.33.22.41.09.41-.09.33-.22.23-.34.08-.41-.08-.41-.23-.33-.33-.22-.41-.09-.41.09zm13.09 3.95l.28.06.32.12.35.18.36.27.36.35.35.47.32.59.28.73.21.88.14 1.04.05 1.23-.06 1.23-.16 1.04-.24.86-.32.71-.36.57-.4.45-.42.33-.42.24-.4.16-.36.09-.32.05-.24.02-.16-.01h-8.22v.82h5.84l.01 2.76.02.36-.05.34-.11.31-.17.29-.25.25-.31.24-.38.2-.44.17-.51.15-.58.13-.64.09-.71.07-.77.04-.84.01-1.27-.04-1.07-.14-.9-.2-.73-.25-.59-.3-.45-.33-.34-.34-.25-.34-.16-.33-.1-.3-.04-.25-.02-.2.01-.13v-5.34l.05-.64.13-.54.21-.46.26-.38.3-.32.33-.24.35-.2.35-.14.33-.1.3-.06.26-.04.21-.02.13-.01h5.84l.69-.05.59-.14.5-.21.41-.28.33-.32.27-.35.2-.36.15-.36.1-.35.07-.32.04-.28.02-.21V6.07h2.09l.14.01zm-6.47 14.25l-.23.33-.08.41.08.41.23.33.33.23.41.08.41-.08.33-.23.23-.33.08-.41-.08-.41-.23-.33-.33-.23-.41-.08-.41.08z" fill="#3776AB"/></svg>
</g>
<g transform="translate(0, 26)">
<text x="0" y="16" class="stack__title" fill="#957FB8" font-family="monospace" font-size="14" font-weight="bold">Frontend</text>
<svg x="100" y="0" width="22" height="22" viewBox="0 0 24 24"><path d="M24,1.61H14.06L12,5.16,9.94,1.61H0L12,22.39ZM12,14.08,5.16,2.23H9.59L12,6.41l2.41-4.18h4.43Z" fill="#4FC08D"/></svg>
<svg x="130" y="0" width="22" height="22" viewBox="0 0 24 24"><path d="M14.23 12.004a2.236 2.236 0 0 1-2.235 2.236 2.236 2.236 0 0 1-2.236-2.236 2.236 2.236 0 0 1 2.235-2.236 2.236 2.236 0 0 1 2.236 2.236zm2.648-10.69c-1.346 0-3.107.96-4.888 2.622-1.78-1.653-3.542-2.602-4.887-2.602-.41 0-.783.093-1.106.278-1.375.793-1.683 3.264-.973 6.365C1.98 8.917 0 10.42 0 12.004c0 1.59 1.99 3.097 5.043 4.03-.704 3.113-.39 5.588.988 6.38.32.187.69.275 1.102.275 1.345 0 3.107-.96 4.888-2.624 1.78 1.654 3.542 2.603 4.887 2.603.41 0 .783-.09 1.106-.275 1.374-.792 1.683-3.263.973-6.365C22.02 15.096 24 13.59 24 12.004c0-1.59-1.99-3.097-5.043-4.032.704-3.11.39-5.587-.988-6.38-.318-.184-.688-.277-1.092-.278zm-.005 1.09v.006c.225 0 .406.044.558.127.666.382.955 1.835.73 3.704-.054.46-.142.945-.25 1.44-.96-.236-2.006-.417-3.107-.534-.66-.905-1.345-1.727-2.035-2.447 1.592-1.48 3.087-2.292 4.105-2.295zm-9.77.02c1.012 0 2.514.808 4.11 2.28-.686.72-1.37 1.537-2.02 2.442-1.107.117-2.154.298-3.113.538-.112-.49-.195-.964-.254-1.42-.23-1.868.054-3.32.714-3.707.19-.09.4-.127.563-.132zm4.882 3.05c.455.468.91.992 1.36 1.564-.44-.02-.89-.034-1.345-.034-.46 0-.915.01-1.36.034.44-.572.895-1.096 1.345-1.565zM12 8.1c.74 0 1.477.034 2.202.093.406.582.802 1.203 1.183 1.86.372.64.71 1.29 1.018 1.946-.308.655-.646 1.31-1.013 1.95-.38.66-.773 1.288-1.18 1.87-.728.063-1.466.098-2.21.098-.74 0-1.477-.035-2.202-.093-.406-.582-.802-1.204-1.183-1.86-.372-.64-.71-1.29-1.018-1.946.303-.657.646-1.313 1.013-1.954.38-.66.773-1.286 1.18-1.868.728-.064 1.466-.098 2.21-.098zm-3.635.254c-.24.377-.48.763-.704 1.16-.225.39-.435.782-.635 1.174-.265-.656-.49-1.31-.676-1.947.64-.15 1.315-.283 2.015-.386zm7.26 0c.695.103 1.365.23 2.006.387-.18.632-.405 1.282-.66 1.933-.2-.39-.41-.783-.64-1.174-.225-.392-.465-.774-.705-1.146zm3.063.675c.484.15.944.317 1.375.498 1.732.74 2.852 1.708 2.852 2.476-.005.768-1.125 1.74-2.857 2.475-.42.18-.88.342-1.355.493-.28-.958-.646-1.956-1.1-2.98.45-1.017.81-2.01 1.085-2.964zm-13.395.004c.278.96.645 1.957 1.1 2.98-.45 1.017-.812 2.01-1.086 2.964-.484-.15-.944-.318-1.37-.5-1.732-.737-2.852-1.706-2.852-2.474 0-.768 1.12-1.742 2.852-2.476.42-.18.88-.342 1.356-.494zm11.678 4.28c.265.657.49 1.312.676 1.948-.64.157-1.316.29-2.016.39.24-.375.48-.762.705-1.158.225-.39.435-.788.636-1.18zm-9.945.02c.2.392.41.783.64 1.175.23.39.465.772.705 1.143-.695-.102-1.365-.23-2.006-.386.18-.63.406-1.282.66-1.933zM17.92 16.32c.112.493.2.968.254 1.423.23 1.868-.054 3.32-.714 3.708-.147.09-.338.128-.563.128-1.012 0-2.514-.807-4.11-2.28.686-.72 1.37-1.536 2.02-2.44 1.107-.118 2.154-.3 3.113-.54zm-11.83.01c.96.234 2.006.415 3.107.532.66.905 1.345 1.727 2.035 2.446-1.595 1.483-3.092 2.295-4.11 2.295-.22-.005-.406-.05-.553-.132-.666-.38-.955-1.834-.73-3.703.054-.46.142-.944.25-1.438zm4.56.64c.44.02.89.034 1.345.034.46 0 .915-.01 1.36-.034-.44.572-.895 1.095-1.345 1.565-.455-.47-.91-.993-1.36-1.565z" fill="#61DAFB"/></svg>
<svg x="160" y="0" width="22" height="22" viewBox="0 0 24 24"><path d="M16.71.243l-.12 2.71a.18.18 0 00.29.15l1.06-.8.9.7a.18.18 0 00.28-.14l-.1-2.76 1.33-.1a1.2 1.2 0 011.279 1.2v21.596a1.2 1.2 0 01-1.26 1.2l-16.096-.72a1.2 1.2 0 01-1.15-1.16l-.75-19.797a1.2 1.2 0 011.13-1.27L16.7.222zM13.64 9.3c0 .47 3.16.24 3.59-.08 0-3.2-1.72-4.89-4.859-4.89-3.15 0-4.899 1.72-4.899 4.29 0 4.45 5.999 4.53 5.999 6.959 0 .7-.32 1.1-1.05 1.1-.96 0-1.35-.49-1.3-2.16 0-.36-3.649-.48-3.769 0-.27 4.03 2.23 5.2 5.099 5.2 2.79 0 4.969-1.49 4.969-4.18 0-4.77-6.099-4.64-6.099-6.999 0-.97.72-1.1 1.13-1.1.45 0 1.25.07 1.19 1.87z" fill="#FF4785"/></svg>
</g>
<g transform="translate(0, 52)">
<text x="0" y="16" class="stack__title" fill="#957FB8" font-family="monospace" font-size="14" font-weight="bold">Backend</text>
<svg x="100" y="0" width="22" height="22" viewBox="0 0 24 24"><path d="M11.998,24c-0.321,0-0.641-0.084-0.922-0.247l-2.936-1.737c-0.438-0.245-0.224-0.332-0.08-0.383 c0.585-0.203,0.703-0.25,1.328-0.604c0.065-0.037,0.151-0.023,0.218,0.017l2.256,1.339c0.082,0.045,0.197,0.045,0.272,0l8.795-5.076 c0.082-0.047,0.134-0.141,0.134-0.238V6.921c0-0.099-0.053-0.192-0.137-0.242l-8.791-5.072c-0.081-0.047-0.189-0.047-0.271,0 L3.075,6.68C2.99,6.729,2.936,6.825,2.936,6.921v10.15c0,0.097,0.054,0.189,0.139,0.235l2.409,1.392 c1.307,0.654,2.108-0.116,2.108-0.89V7.787c0-0.142,0.114-0.253,0.256-0.253h1.115c0.139,0,0.255,0.112,0.255,0.253v10.021 c0,1.745-0.95,2.745-2.604,2.745c-0.508,0-0.909,0-2.026-0.551L2.28,18.675c-0.57-0.329-0.922-0.945-0.922-1.604V6.921 c0-0.659,0.353-1.275,0.922-1.603l8.795-5.082c0.557-0.315,1.296-0.315,1.848,0l8.794,5.082c0.57,0.329,0.924,0.944,0.924,1.603 v10.15c0,0.659-0.354,1.273-0.924,1.604l-8.794,5.078C12.643,23.916,12.324,24,11.998,24z M19.099,13.993 c0-1.9-1.284-2.406-3.987-2.763c-2.731-0.361-3.009-0.548-3.009-1.187c0-0.528,0.235-1.233,2.258-1.233 c1.807,0,2.473,0.389,2.747,1.607c0.024,0.115,0.129,0.199,0.247,0.199h1.141c0.071,0,0.138-0.031,0.186-0.081 c0.048-0.054,0.074-0.123,0.067-0.196c-0.177-2.098-1.571-3.076-4.388-3.076c-2.508,0-4.004,1.058-4.004,2.833 c0,1.925,1.488,2.457,3.895,2.695c2.88,0.282,3.103,0.703,3.103,1.269c0,0.983-0.789,1.402-2.642,1.402 c-2.327,0-2.839-0.584-3.011-1.742c-0.02-0.124-0.126-0.215-0.253-0.215h-1.137c-0.141,0-0.254,0.112-0.254,0.253 c0,1.482,0.806,3.248,4.655,3.248C17.501,17.007,19.099,15.91,19.099,13.993z" fill="#339933"/></svg>
<svg x="130" y="0" width="22" height="22" viewBox="0 0 24 24"><path d="M14.131.047c-.173 0-.334.037-.483.087.316.21.49.49.576.806.007.043.019.074.025.117a.681.681 0 0 1 .013.112c.024.545-.143.614-.26.936-.18.415-.13.861.086 1.22a.74.74 0 0 0 .074.137c-.235-1.568 1.073-1.803 1.314-2.293.019-.428-.334-.713-.613-.911a1.37 1.37 0 0 0-.732-.21zM16.102.4c-.024.143-.006.106-.012.18-.006.05-.006.112-.012.161-.013.05-.025.1-.044.149-.012.05-.03.1-.05.149l-.067.142c-.02.025-.031.05-.05.075l-.037.055a2.152 2.152 0 0 1-.093.124c-.037.038-.068.081-.112.112v.006c-.037.031-.074.068-.118.1-.13.099-.278.173-.415.266-.043.03-.087.056-.124.093a.906.906 0 0 0-.118.099c-.043.037-.074.074-.111.118-.031.037-.068.08-.093.124a1.582 1.582 0 0 0-.087.13c-.025.05-.043.093-.068.142-.019.05-.037.093-.05.143a2.007 2.007 0 0 0-.043.155c-.006.025-.006.056-.012.08-.007.025-.007.05-.013.075 0 .05-.006.105-.006.155 0 .037 0 .074.006.111 0 .05.006.1.019.155.006.05.018.1.03.15.02.049.032.098.05.148.013.03.031.062.044.087l-1.426-.552c-.241-.068-.477-.13-.719-.186l-.39-.093c-.372-.074-.75-.13-1.128-.167-.013 0-.019-.006-.031-.006A11.082 11.082 0 0 0 8.9 2.855c-.378.025-.756.074-1.134.136a12.45 12.45 0 0 0-.837.174l-.279.074c-.092.037-.18.08-.266.118l-.205.093c-.012.006-.024.006-.03.012-.063.031-.118.056-.174.087a2.738 2.738 0 0 0-.236.118c-.043.018-.086.043-.124.062a.559.559 0 0 1-.055.03c-.056.032-.112.063-.162.094a1.56 1.56 0 0 0-.148.093c-.044.03-.087.055-.124.086-.006.007-.013.007-.019.013-.037.025-.08.056-.118.087l-.012.012-.093.074c-.012.007-.025.019-.037.025-.031.025-.062.056-.093.08-.006.013-.019.02-.025.025-.037.038-.074.069-.111.106-.007 0-.007.006-.013.012a1.742 1.742 0 0 0-.111.106c-.007.006-.007.012-.013.012a1.454 1.454 0 0 0-.093.1c-.012.012-.03.024-.043.036a1.374 1.374 0 0 1-.106.112c-.006.012-.018.019-.024.03-.05.05-.093.1-.143.15l-.018.018c-.1.106-.205.211-.317.304-.111.1-.229.192-.347.273a3.777 3.777 0 0 1-.762.421c-.13.056-.267.106-.403.149-.26.056-.527.161-.756.18-.05 0-.105.012-.155.018l-.155.037-.149.056c-.05.019-.099.044-.148.068-.044.031-.093.056-.137.087a1.011 1.011 0 0 0-.124.106c-.043.03-.087.074-.124.111-.037.043-.074.08-.105.124-.031.05-.068.093-.093.143a1.092 1.092 0 0 0-.087.142c-.025.056-.05.106-.068.161-.019.05-.037.106-.056.161-.012.05-.025.1-.03.15 0 .005-.007.012-.007.018-.012.056-.012.13-.019.167C.006 7.95 0 7.986 0 8.03a.657.657 0 0 0 .074.31v.006c.019.037.044.075.069.112.024.037.05.074.08.111.031.031.068.069.106.1a.906.906 0 0 0 .117.099c.149.13.186.173.378.272.031.019.062.031.1.05.006 0 .012.006.018.006 0 .013 0 .019.006.031a1.272 1.272 0 0 0 .08.298c.02.037.032.074.05.111.007.013.013.025.02.031.024.05.049.093.073.137l.093.13c.031.037.069.08.106.118.037.037.074.068.118.105 0 0 .006.006.012.006.037.031.074.062.112.087a.986.986 0 0 0 .136.08c.043.025.093.05.142.069a.73.73 0 0 0 .124.043c.007.006.013.006.025.012.025.007.056.013.08.019-.018.335-.024.65.026.762.055.124.328-.254.6-.688-.036.428-.061.93 0 1.079.069.155.44-.329.763-.862 4.395-1.016 8.405 2.02 8.826 6.31-.08-.67-.905-1.041-1.283-.948-.186.458-.502 1.047-1.01 1.413.043-.41.025-.83-.062-1.24a4.009 4.009 0 0 1-.769 1.562c-.588.043-1.177-.242-1.487-.67-.025-.018-.031-.055-.05-.08-.018-.043-.037-.087-.05-.13a.515.515 0 0 1-.037-.13c-.006-.044-.006-.087-.006-.137v-.093a.992.992 0 0 1 .031-.13c.013-.043.025-.086.044-.13.024-.043.043-.087.074-.13.105-.298.105-.54-.087-.682a.706.706 0 0 0-.118-.062c-.024-.006-.055-.018-.08-.025l-.05-.018a.847.847 0 0 0-.13-.031.472.472 0 0 0-.13-.019 1.01 1.01 0 0 0-.136-.012c-.031 0-.062.006-.093.006a.484.484 0 0 0-.137.019c-.043.006-.086.012-.13.024a1.068 1.068 0 0 0-.13.044c-.043.018-.08.037-.124.056-.037.018-.074.043-.118.062-1.444.942-.582 3.148.403 3.787-.372.068-.75.148-.855.229l-.013.012c.267.161.546.298.837.416.397.13.818.247 1.004.297v.006a5.996 5.996 0 0 0 1.562.112c2.746-.192 4.996-2.281 5.405-5.033l.037.161c.019.112.043.23.056.347v.006c.012.056.018.112.025.162v.024c.006.056.012.112.012.162.006.068.012.136.012.204v.1c0 .03.007.067.007.098 0 .038-.007.075-.007.112v.087c0 .043-.006.08-.006.124 0 .025 0 .05-.006.08 0 .044-.006.087-.006.137-.006.018-.006.037-.006.055l-.02.143c0 .019 0 .037-.005.056-.007.062-.019.118-.025.18v.012l-.037.174v.018l-.037.167c0 .007-.007.02-.007.025a1.663 1.663 0 0 1-.043.168v.018c-.019.062-.037.118-.05.174-.006.006-.006.012-.006.012l-.056.186c-.024.062-.043.118-.068.18-.025.062-.043.124-.068.18-.025.062-.05.117-.074.18h-.007c-.024.055-.05.117-.08.173a.302.302 0 0 1-.019.043c-.006.006-.006.013-.012.019a5.867 5.867 0 0 1-1.742 2.082c-.05.031-.099.069-.149.106-.012.012-.03.018-.043.03a2.603 2.603 0 0 1-.136.094l.018.037h.007l.26-.037h.006c.161-.025.322-.056.483-.087.044-.006.093-.019.137-.031l.087-.019c.043-.006.086-.018.13-.024.037-.013.074-.02.111-.031.62-.15 1.221-.354 1.798-.595a9.926 9.926 0 0 1-3.85 3.142c.714-.05 1.426-.167 2.114-.366a9.903 9.903 0 0 0 5.857-4.68 9.893 9.893 0 0 1-1.667 3.986 9.758 9.758 0 0 0 1.655-1.376 9.824 9.824 0 0 0 2.61-5.268c.21.98.272 1.99.18 2.987 4.474-6.241.371-12.712-1.346-14.416-.006-.013-.012-.019-.012-.031-.006.006-.006.006-.006.012 0-.006 0-.006-.007-.012 0 .074-.006.148-.012.223a8.34 8.34 0 0 1-.062.415c-.03.136-.068.273-.105.41-.044.13-.093.266-.15.396a5.322 5.322 0 0 1-.185.378 4.735 4.735 0 0 1-.477.688c-.093.111-.192.21-.292.31a3.994 3.994 0 0 1-.18.155l-.142.124a3.459 3.459 0 0 1-.347.241 4.295 4.295 0 0 1-.366.211c-.13.062-.26.118-.39.174a4.364 4.364 0 0 1-.818.223c-.143.025-.285.037-.422.05a4.914 4.914 0 0 1-.297.012 4.66 4.66 0 0 1-.422-.025 3.137 3.137 0 0 1-.421-.062 3.136 3.136 0 0 1-.415-.105h-.007c.137-.013.273-.025.41-.05a4.493 4.493 0 0 0 .818-.223c.136-.05.266-.112.39-.174.13-.062.248-.13.372-.204.118-.08.235-.161.347-.248.112-.087.217-.18.316-.279.105-.093.198-.198.291-.304.093-.111.18-.223.26-.334.013-.019.026-.044.038-.062.062-.1.124-.199.18-.298a4.272 4.272 0 0 0 .334-.775c.044-.13.075-.266.106-.403.025-.142.05-.278.062-.415.012-.142.025-.285.025-.421 0-.1-.007-.199-.013-.298a6.726 6.726 0 0 0-.05-.415 4.493 4.493 0 0 0-.092-.415c-.044-.13-.087-.267-.137-.397-.05-.13-.111-.26-.173-.384-.069-.124-.137-.248-.211-.366a6.843 6.843 0 0 0-.248-.34c-.093-.106-.186-.212-.285-.317a3.878 3.878 0 0 0-.161-.155c-.28-.217-.57-.421-.862-.607a1.154 1.154 0 0 0-.124-.062 2.415 2.415 0 0 0-.589-.26Z" fill="#E0234E"/></svg>
<svg x="160" y="0" width="22" height="22" viewBox="0 0 24 24"><path d="M24 18.588a1.529 1.529 0 01-1.895-.72l-3.45-4.771-.5-.667-4.003 5.444a1.466 1.466 0 01-1.802.708l5.158-6.92-4.798-6.251a1.595 1.595 0 011.9.666l3.576 4.83 3.596-4.81a1.435 1.435 0 011.788-.668L21.708 7.9l-2.522 3.283a.666.666 0 000 .994l4.804 6.412zM.002 11.576l.42-2.075c1.154-4.103 5.858-5.81 9.094-3.27 1.895 1.489 2.368 3.597 2.275 5.973H1.116C.943 16.447 4.005 19.009 7.92 17.7a4.078 4.078 0 002.582-2.876c.207-.666.548-.78 1.174-.588a5.417 5.417 0 01-2.589 3.957 6.272 6.272 0 01-7.306-.933 6.575 6.575 0 01-1.64-3.858c0-.235-.08-.455-.134-.666A88.33 88.33 0 010 11.577zm1.127-.286h9.654c-.06-3.076-2.001-5.258-4.59-5.278-2.882-.04-4.944 2.094-5.071 5.264z" fill="#FFFFFF"/></svg>
</g>
<g transform="translate(0, 78)">
<text x="0" y="16" class="stack__title" fill="#957FB8" font-family="monospace" font-size="14" font-weight="bold">Tools</text>
<svg x="100" y="0" width="22" height="22" viewBox="0 0 24 24"><path d="M13.056 23.238a.57.57 0 0 1-1.02-.355v-5.202c0-.63-.512-1.143-1.144-1.143H5.148a.57.57 0 0 1-.464-.903l3.777-5.29c.54-.753 0-1.804-.93-1.804H.57a.574.574 0 0 1-.543-.746.6.6 0 0 1 .08-.157L5.008.78a.57.57 0 0 1 .467-.24h14.589a.57.57 0 0 1 .466.903l-3.778 5.29c-.54.755 0 1.806.93 1.806h5.745c.238 0 .424.138.513.322a.56.56 0 0 1-.063.603z" fill="#646CFF"/></svg>
<svg x="130" y="0" width="22" height="22" viewBox="0 0 24 24"><path d="M11.545 23.3a.613.613 0 0 1-.895.197L.252 15.936A.61.61 0 0 1 0 15.439V6.325c0-.502.569-.792.975-.497l6.358 4.624c.594.433 1.432.25 1.793-.39L14.393.7a.62.62 0 0 1 .535-.314h8.455a.613.613 0 0 1 .537.916z" fill="#6E9F18"/></svg>
<svg x="160" y="0" width="22" height="22" viewBox="0 0 24 24"><path d="M0 0v7.5h7.5V0zm8.25 0v7.5h7.498V0zm8.25 0v7.5H24V0zM8.25 8.25v7.5h7.498v-7.5zm8.25 0v7.5H24v-7.5zM0 16.5V24h7.5v-7.5zm8.25 0V24h7.498v-7.5zm8.25 0V24H24v-7.5z" fill="#F69220"/></svg>
<svg x="190" y="0" width="22" height="22" viewBox="0 0 24 24"><path d="M7.257 9.132L11.816 6.5a.369.369 0 0 1 .368 0l4.559 2.632a.369.369 0 0 1 .184.32v5.263a.37.37 0 0 1-.184.319l-4.559 2.632a.369.369 0 0 1-.368 0l-4.559-2.632a.369.369 0 0 1-.184-.32V9.452a.37.37 0 0 1 .184-.32M23.852 11.53l-5.446-9.475c-.198-.343-.564-.596-.96-.596H6.555c-.396 0-.762.253-.96.596L.149 11.509a1.127 1.127 0 0 0 0 1.117l5.447 9.398c.197.342.563.517.959.517h10.893c.395 0 .76-.17.959-.512l5.446-9.413a1.069 1.069 0 0 0 0-1.086m-4.51 4.556a.4.4 0 0 1-.204.338L12.2 20.426a.395.395 0 0 1-.392 0l-6.943-4.002a.4.4 0 0 1-.205-.338V8.08c0-.14.083-.269.204-.338L11.8 3.74c.12-.07.272-.07.392 0l6.943 4.003a.4.4 0 0 1 .206.338z" fill="#4B32C3"/></svg>
</g>
<g transform="translate(0, 104)">
<text x="0" y="16" class="stack__title" fill="#957FB8" font-family="monospace" font-size="14" font-weight="bold">Infra</text>
<svg x="100" y="0" width="22" height="22" viewBox="0 0 24 24"><path d="M13.983 11.078h2.119a.186.186 0 00.186-.185V9.006a.186.186 0 00-.186-.186h-2.119a.185.185 0 00-.185.185v1.888c0 .102.083.185.185.185m-2.954-5.43h2.118a.186.186 0 00.186-.186V3.574a.186.186 0 00-.186-.185h-2.118a.185.185 0 00-.185.185v1.888c0 .102.082.185.185.185m0 2.716h2.118a.187.187 0 00.186-.186V6.29a.186.186 0 00-.186-.185h-2.118a.185.185 0 00-.185.185v1.887c0 .102.082.185.185.186m-2.93 0h2.12a.186.186 0 00.184-.186V6.29a.185.185 0 00-.185-.185H8.1a.185.185 0 00-.185.185v1.887c0 .102.083.185.185.186m-2.964 0h2.119a.186.186 0 00.185-.186V6.29a.185.185 0 00-.185-.185H5.136a.186.186 0 00-.186.185v1.887c0 .102.084.185.186.186m5.893 2.715h2.118a.186.186 0 00.186-.185V9.006a.186.186 0 00-.186-.186h-2.118a.185.185 0 00-.185.185v1.888c0 .102.082.185.185.185m-2.93 0h2.12a.185.185 0 00.184-.185V9.006a.185.185 0 00-.184-.186h-2.12a.185.185 0 00-.184.185v1.888c0 .102.083.185.185.185m-2.964 0h2.119a.185.185 0 00.185-.185V9.006a.185.185 0 00-.184-.186h-2.12a.186.186 0 00-.186.186v1.887c0 .102.084.185.186.185m-2.92 0h2.12a.185.185 0 00.184-.185V9.006a.185.185 0 00-.184-.186h-2.12a.185.185 0 00-.184.185v1.888c0 .102.082.185.185.185M23.763 9.89c-.065-.051-.672-.51-1.954-.51-.338.001-.676.03-1.01.087-.248-1.7-1.653-2.53-1.716-2.566l-.344-.199-.226.327c-.284.438-.49.922-.612 1.43-.23.97-.09 1.882.403 2.661-.595.332-1.55.413-1.744.42H.751a.751.751 0 00-.75.748 11.376 11.376 0 00.692 4.062c.545 1.428 1.355 2.48 2.41 3.124 1.18.723 3.1 1.137 5.275 1.137.983.003 1.963-.086 2.93-.266a12.248 12.248 0 003.823-1.389c.98-.567 1.86-1.288 2.61-2.136 1.252-1.418 1.998-2.997 2.553-4.4h.221c1.372 0 2.215-.549 2.68-1.009.309-.293.55-.65.707-1.046l.098-.288Z" fill="#2496ED"/></svg>
<svg x="130" y="0" width="22" height="22" viewBox="0 0 24 24"><path d="M10.204 14.35l.007.01-.999 2.413a5.171 5.171 0 0 1-2.075-2.597l2.578-.437.004.005a.44.44 0 0 1 .484.606zm-.833-2.129a.44.44 0 0 0 .173-.756l.002-.011L7.585 9.7a5.143 5.143 0 0 0-.73 3.255l2.514-.725.002-.009zm1.145-1.98a.44.44 0 0 0 .699-.337l.01-.005.15-2.62a5.144 5.144 0 0 0-3.01 1.442l2.147 1.523.004-.002zm.76 2.75l.723.349.722-.347.18-.78-.5-.623h-.804l-.5.623.179.779zm1.5-3.095a.44.44 0 0 0 .7.336l.008.003 2.134-1.513a5.188 5.188 0 0 0-2.992-1.442l.148 2.615.002.001zm10.876 5.97l-5.773 7.181a1.6 1.6 0 0 1-1.248.594l-9.261.003a1.6 1.6 0 0 1-1.247-.596l-5.776-7.18a1.583 1.583 0 0 1-.307-1.34L2.1 5.573c.108-.47.425-.864.863-1.073L11.305.513a1.606 1.606 0 0 1 1.385 0l8.345 3.985c.438.209.755.604.863 1.073l2.062 8.955c.108.47-.005.963-.308 1.34zm-3.289-2.057c-.042-.01-.103-.026-.145-.034-.174-.033-.315-.025-.479-.038-.35-.037-.638-.067-.895-.148-.105-.04-.18-.165-.216-.216l-.201-.059a6.45 6.45 0 0 0-.105-2.332 6.465 6.465 0 0 0-.936-2.163c.052-.047.15-.133.177-.159.008-.09.001-.183.094-.282.197-.185.444-.338.743-.522.142-.084.273-.137.415-.242.032-.024.076-.062.11-.089.24-.191.295-.52.123-.736-.172-.216-.506-.236-.745-.045-.034.027-.08.062-.111.088-.134.116-.217.23-.33.35-.246.25-.45.458-.673.609-.097.056-.239.037-.303.033l-.19.135a6.545 6.545 0 0 0-4.146-2.003l-.012-.223c-.065-.062-.143-.115-.163-.25-.022-.268.015-.557.057-.905.023-.163.061-.298.068-.475.001-.04-.001-.099-.001-.142 0-.306-.224-.555-.5-.555-.275 0-.499.249-.499.555l.001.014c0 .041-.002.092 0 .128.006.177.044.312.067.475.042.348.078.637.056.906a.545.545 0 0 1-.162.258l-.012.211a6.424 6.424 0 0 0-4.166 2.003 8.373 8.373 0 0 1-.18-.128c-.09.012-.18.04-.297-.029-.223-.15-.427-.358-.673-.608-.113-.12-.195-.234-.329-.349-.03-.026-.077-.062-.111-.088a.594.594 0 0 0-.348-.132.481.481 0 0 0-.398.176c-.172.216-.117.546.123.737l.007.005.104.083c.142.105.272.159.414.242.299.185.546.338.743.522.076.082.09.226.1.288l.16.143a6.462 6.462 0 0 0-1.02 4.506l-.208.06c-.055.072-.133.184-.215.217-.257.081-.546.11-.895.147-.164.014-.305.006-.48.039-.037.007-.09.02-.133.03l-.004.002-.007.002c-.295.071-.484.342-.423.608.061.267.349.429.645.365l.007-.001.01-.003.129-.029c.17-.046.294-.113.448-.172.33-.118.604-.217.87-.256.112-.009.23.069.288.101l.217-.037a6.5 6.5 0 0 0 2.88 3.596l-.09.218c.033.084.069.199.044.282-.097.252-.263.517-.452.813-.091.136-.185.242-.268.399-.02.037-.045.095-.064.134-.128.275-.034.591.213.71.248.12.556-.007.69-.282v-.002c.02-.039.046-.09.062-.127.07-.162.094-.301.144-.458.132-.332.205-.68.387-.897.05-.06.13-.082.215-.105l.113-.205a6.453 6.453 0 0 0 4.609.012l.106.192c.086.028.18.042.256.155.136.232.229.507.342.84.05.156.074.295.145.457.016.037.043.09.062.129.133.276.442.402.69.282.247-.118.341-.435.213-.71-.02-.039-.045-.096-.065-.134-.083-.156-.177-.261-.268-.398-.19-.296-.346-.541-.443-.793-.04-.13.007-.21.038-.294-.018-.022-.059-.144-.083-.202a6.499 6.499 0 0 0 2.88-3.622c.064.01.176.03.213.038.075-.05.144-.114.28-.104.266.039.54.138.87.256.154.06.277.128.448.173.036.01.088.019.13.028l.009.003.007.001c.297.064.584-.098.645-.365.06-.266-.128-.537-.423-.608zM16.4 9.701l-1.95 1.746v.005a.44.44 0 0 0 .173.757l.003.01 2.526.728a5.199 5.199 0 0 0-.108-1.674A5.208 5.208 0 0 0 16.4 9.7zm-4.013 5.325a.437.437 0 0 0-.404-.232.44.44 0 0 0-.372.233h-.002l-1.268 2.292a5.164 5.164 0 0 0 3.326.003l-1.27-2.296h-.01zm1.888-1.293a.44.44 0 0 0-.27.036.44.44 0 0 0-.214.572l-.003.004 1.01 2.438a5.15 5.15 0 0 0 2.081-2.615l-2.6-.44-.004.005z" fill="#326CE5"/></svg>
<svg x="160" y="0" width="22" height="22" viewBox="0 0 24 24"><path d="M7.352 1.592l-1.364.002L5.32 2.75l1.557 2.713-3.137-.008-1.32 2.34H14.11l-1.353-2.332-3.192-.006-2.214-3.865zm6.175 0l-2.687.025 5.846 10.127 1.341-2.34-1.59-2.765 2.24-3.85-.683-1.182h-1.336l-1.57 2.705-1.56-2.72zm6.887 4.195l-5.846 10.125 2.696-.008 1.601-2.76 4.453.016.682-1.183-.666-1.157-3.13-.008L21.778 8.1l-1.365-2.313zM9.432 8.086l-2.696.008-1.601 2.76-4.453-.016L0 12.02l.666 1.157 3.13.008-1.575 2.71 1.365 2.315L9.432 8.086zM7.33 12.25l-.006.01-.002-.004-1.342 2.34 1.59 2.765-2.24 3.85.684 1.182H7.35l.004-.006h.001l1.567-2.698 1.558 2.72 2.688-.026-.004-.006h.01L7.33 12.25zm2.55 3.93l1.354 2.332 3.192.006 2.215 3.865 1.363-.002.668-1.156-1.557-2.713 3.137.008 1.32-2.34H9.881Z" fill="#5277C3"/></svg>
</g>
</g></g>
<g class="command-prompt animate" style="animation-delay: 7.9s">
    <text x="10" y="556" fill="#658594" font-family="monospace" font-size="14" font-weight="bold">~/github/profile</text>
<text x="156" y="556" fill="#727169" font-family="monospace" font-size="14" font-weight="bold">→</text>
<text x="176" y="556" fill="#957FB8" font-family="monospace" font-size="14">git:main </text>
    <text x="780" y="556" fill="#727169" font-family="monospace" font-size="14" text-anchor="end" font-weight="normal">10:11</text>
<text x="727.5" y="556" fill="#658594" font-family="monospace" font-size="14" text-anchor="end" font-weight="normal">nix</text>
<text x="692" y="556" fill="#DCD7BA" font-family="monospace" font-size="14" text-anchor="end" font-weight="bold">❄️</text>
<text x="665" y="556" fill="#727169" font-family="monospace" font-size="14" text-anchor="end" font-weight="normal">*</text>
<text x="646.5" y="556" fill="#76946A" font-family="monospace" font-size="14" text-anchor="end" font-weight="normal">v24.13.0</text>
<text x="568.5" y="556" fill="#76946A" font-family="monospace" font-size="14" text-anchor="end" font-weight="bold">node</text>
<text x="524.5" y="556" fill="#76946A" font-family="monospace" font-size="14" text-anchor="end" font-weight="bold">⬢</text>
  </g>

    <defs>
      <clipPath id="typing-clip-3">
        <rect x="10" y="562" width="0" height="20">
          <animate
            attributeName="width"
            from="0"
            to="310.8"
            dur="4.539999999999999s"
            begin="8.1s"
            fill="freeze"
            calcMode="discrete"
            keyTimes="0;0.02702702702702703;0.05405405405405406;0.08108108108108109;0.10810810810810811;0.13513513513513514;0.16216216216216217;0.1891891891891892;0.21621621621621623;0.24324324324324326;0.2702702702702703;0.2972972972972973;0.32432432432432434;0.35135135135135137;0.3783783783783784;0.40540540540540543;0.43243243243243246;0.4594594594594595;0.4864864864864865;0.5135135135135135;0.5405405405405406;0.5675675675675675;0.5945945945945946;0.6216216216216216;0.6486486486486487;0.6756756756756757;0.7027027027027027;0.7297297297297297;0.7567567567567568;0.7837837837837838;0.8108108108108109;0.8378378378378378;0.8648648648648649;0.8918918918918919;0.918918918918919;0.9459459459459459;0.972972972972973;1"
            values="8.4;16.8;25.200000000000003;33.6;42;50.4;58.800000000000004;67.2;75.60000000000001;84.00000000000001;92.4;100.80000000000001;109.20000000000002;117.60000000000001;126.00000000000001;134.4;142.8;151.20000000000002;159.60000000000002;168;176.4;184.8;193.20000000000002;201.60000000000002;210.00000000000003;218.4;226.8;235.20000000000002;243.60000000000002;252.00000000000003;260.4;268.8;277.2;285.59999999999997;294;302.4;310.8;319.2"
          />
        </rect>
      </clipPath>
    </defs>
<text
    x="10"
    y="576"
    class="command-line terminal-text"
    fill="#DCD7BA"
    font-family="monospace"
    font-size="14"
    clip-path="url(#typing-clip-3)"
  >$ gh repo list --limit 3 --sort stars</text>

  <rect
    id="cursor-3"
    x="10"
    y="564"
    width="2"
    height="16"
    fill="#98BB6C"
    opacity="0"
  >
    <!-- Show cursor when typing starts -->
    <animate
      attributeName="opacity"
      from="0"
      to="1"
      dur="0.01s"
      begin="8.1s"
      fill="freeze"
    />
    <!-- Animate cursor position jumping with each character -->
    <animate
      attributeName="x"
      dur="4.539999999999999s"
      begin="8.1s"
      fill="freeze"
      calcMode="discrete"
      keyTimes="0;0.02702702702702703;0.05405405405405406;0.08108108108108109;0.10810810810810811;0.13513513513513514;0.16216216216216217;0.1891891891891892;0.21621621621621623;0.24324324324324326;0.2702702702702703;0.2972972972972973;0.32432432432432434;0.35135135135135137;0.3783783783783784;0.40540540540540543;0.43243243243243246;0.4594594594594595;0.4864864864864865;0.5135135135135135;0.5405405405405406;0.5675675675675675;0.5945945945945946;0.6216216216216216;0.6486486486486487;0.6756756756756757;0.7027027027027027;0.7297297297297297;0.7567567567567568;0.7837837837837838;0.8108108108108109;0.8378378378378378;0.8648648648648649;0.8918918918918919;0.918918918918919;0.9459459459459459;0.972972972972973;1"
      values="18.4;26.799999999999997;35.2;43.6;52;60.4;68.80000000000001;77.20000000000002;85.60000000000001;94.00000000000001;102.4;110.80000000000001;119.20000000000002;127.60000000000001;136;144.4;152.8;161.20000000000002;169.60000000000002;178;186.4;194.8;203.20000000000002;211.60000000000002;220.00000000000003;228.4;236.8;245.20000000000002;253.60000000000002;262;270.4;278.8;287.2;295.59999999999997;304;312.4;320.8;329.2"
    />
    <!-- Blink animation while typing -->
    <animate
      attributeName="opacity"
      values="1;0;1"
      dur="1s"
      begin="8.1s"
      end="12.639999999999999s"
      repeatCount="indefinite"
    />
    <!-- Hide cursor when typing completes -->
    <set
      attributeName="opacity"
      to="0"
      begin="12.639999999999999s"
      fill="freeze"
    />
  </rect>
<g
    class="command-output animate"
    style="animation-delay: 12.639999999999999s"
    transform="translate(10, 0)"
  ><g id="featured-repos" transform="translate(0, 599)"><g transform="translate(0, 0)"><text x="0" y="0" fill="#E6C384" font-family="monospace" font-size="12">★ 0</text>
<text x="60" y="0" fill="#7FB4CA" font-family="monospace" font-size="12" font-weight="bold">aytordev/system</text>
<text x="60" y="16" fill="#C8C093" font-family="monospace" font-size="11">My declarative NixOS ❄️ / macOS 🍏 configuration</text>
<circle cx="400" cy="-4" r="5" fill="#7e7eff"/><text x="410" y="0" fill="#7e7eff" font-family="monospace" font-size="10">Nix</text></g>
<g transform="translate(0, 36)"><text x="0" y="0" fill="#E6C384" font-family="monospace" font-size="12">★ 0</text>
<text x="60" y="0" fill="#7FB4CA" font-family="monospace" font-size="12" font-weight="bold">aytordev/aytordev</text>
<text x="60" y="16" fill="#C8C093" font-family="monospace" font-size="11">🐚 ~/.profile: A self-updating terminal that tells my dev story through live GitHub data.</text>
<circle cx="400" cy="-4" r="5" fill="#3178c6"/><text x="410" y="0" fill="#3178c6" font-family="monospace" font-size="10">TypeScript</text></g></g></g>
<g class="command-prompt animate" style="animation-delay: 13.34s">
    <text x="10" y="677" fill="#658594" font-family="monospace" font-size="14" font-weight="bold">~/github/profile</text>
<text x="156" y="677" fill="#727169" font-family="monospace" font-size="14" font-weight="bold">→</text>
<text x="176" y="677" fill="#957FB8" font-family="monospace" font-size="14">git:main </text>
    <text x="780" y="677" fill="#727169" font-family="monospace" font-size="14" text-anchor="end" font-weight="normal">10:11</text>
<text x="727.5" y="677" fill="#658594" font-family="monospace" font-size="14" text-anchor="end" font-weight="normal">nix</text>
<text x="692" y="677" fill="#DCD7BA" font-family="monospace" font-size="14" text-anchor="end" font-weight="bold">❄️</text>
<text x="665" y="677" fill="#727169" font-family="monospace" font-size="14" text-anchor="end" font-weight="normal">*</text>
<text x="646.5" y="677" fill="#76946A" font-family="monospace" font-size="14" text-anchor="end" font-weight="normal">v24.13.0</text>
<text x="568.5" y="677" fill="#76946A" font-family="monospace" font-size="14" text-anchor="end" font-weight="bold">node</text>
<text x="524.5" y="677" fill="#76946A" font-family="monospace" font-size="14" text-anchor="end" font-weight="bold">⬢</text>
  </g>

    <defs>
      <clipPath id="typing-clip-4">
        <rect x="10" y="683" width="0" height="20">
          <animate
            attributeName="width"
            from="0"
            to="218.4"
            dur="3.2200000000000024s"
            begin="13.54s"
            fill="freeze"
            calcMode="discrete"
            keyTimes="0;0.038461538461538464;0.07692307692307693;0.11538461538461539;0.15384615384615385;0.19230769230769232;0.23076923076923078;0.2692307692307692;0.3076923076923077;0.34615384615384615;0.38461538461538464;0.4230769230769231;0.46153846153846156;0.5;0.5384615384615384;0.5769230769230769;0.6153846153846154;0.6538461538461539;0.6923076923076923;0.7307692307692307;0.7692307692307693;0.8076923076923077;0.8461538461538461;0.8846153846153846;0.9230769230769231;0.9615384615384616;1"
            values="8.4;16.8;25.200000000000003;33.6;42;50.4;58.800000000000004;67.2;75.60000000000001;84.00000000000001;92.4;100.80000000000001;109.20000000000002;117.60000000000001;126.00000000000001;134.4;142.8;151.20000000000002;159.60000000000002;168;176.4;184.8;193.20000000000002;201.60000000000002;210.00000000000003;218.4;226.8"
          />
        </rect>
      </clipPath>
    </defs>
<text
    x="10"
    y="697"
    class="command-line terminal-text"
    fill="#DCD7BA"
    font-family="monospace"
    font-size="14"
    clip-path="url(#typing-clip-4)"
  >$ echo &quot;Let&#39;s connect! 💬&quot;</text>

  <rect
    id="cursor-4"
    x="10"
    y="685"
    width="2"
    height="16"
    fill="#98BB6C"
    opacity="0"
  >
    <!-- Show cursor when typing starts -->
    <animate
      attributeName="opacity"
      from="0"
      to="1"
      dur="0.01s"
      begin="13.54s"
      fill="freeze"
    />
    <!-- Animate cursor position jumping with each character -->
    <animate
      attributeName="x"
      dur="3.2200000000000024s"
      begin="13.54s"
      fill="freeze"
      calcMode="discrete"
      keyTimes="0;0.038461538461538464;0.07692307692307693;0.11538461538461539;0.15384615384615385;0.19230769230769232;0.23076923076923078;0.2692307692307692;0.3076923076923077;0.34615384615384615;0.38461538461538464;0.4230769230769231;0.46153846153846156;0.5;0.5384615384615384;0.5769230769230769;0.6153846153846154;0.6538461538461539;0.6923076923076923;0.7307692307692307;0.7692307692307693;0.8076923076923077;0.8461538461538461;0.8846153846153846;0.9230769230769231;0.9615384615384616;1"
      values="18.4;26.799999999999997;35.2;43.6;52;60.4;68.80000000000001;77.20000000000002;85.60000000000001;94.00000000000001;102.4;110.80000000000001;119.20000000000002;127.60000000000001;136;144.4;152.8;161.20000000000002;169.60000000000002;178;186.4;194.8;203.20000000000002;211.60000000000002;220.00000000000003;228.4;236.8"
    />
    <!-- Blink animation while typing -->
    <animate
      attributeName="opacity"
      values="1;0;1"
      dur="1s"
      begin="13.54s"
      end="16.76s"
      repeatCount="indefinite"
    />
    <!-- Hide cursor when typing completes -->
    <set
      attributeName="opacity"
      to="0"
      begin="16.76s"
      fill="freeze"
    />
  </rect>
<g
    class="command-output animate"
    style="animation-delay: 16.76s"
    transform="translate(10, 0)"
  ><g id="contact" transform="translate(0, 721)">
      <text x="0" y="0" class="contact__cta" fill="#E6C384" font-family="monospace" font-size="13" font-weight="bold">Let&#39;s connect! 💬</text>
      <svg x="0" y="14" width="12" height="12" viewBox="0 0 12 12"><path d="M6 .28a6 6 0 0 0-1.9 11.69c.3.06.4-.13.4-.28v-1.06c-1.64.36-1.98-.72-1.98-.72a1.56 1.56 0 0 0-.65-.86c-.53-.36.04-.36.04-.36a1.23 1.23 0 0 1 .9.6 1.25 1.25 0 0 0 1.7.49 1.24 1.24 0 0 1 .37-.78c-1.3-.15-2.67-.65-2.67-2.9A2.27 2.27 0 0 1 2.81 4.6a2.1 2.1 0 0 1 .06-1.55s.49-.16 1.62.6a5.6 5.6 0 0 1 2.95 0c1.13-.76 1.63-.6 1.63-.6a2.1 2.1 0 0 1 .05 1.55A2.27 2.27 0 0 1 9.8 6.2c0 2.26-1.38 2.75-2.68 2.9a1.4 1.4 0 0 1 .39 1.08v1.6c0 .15.1.34.4.28A6 6 0 0 0 6 .28" fill="#727169"/></svg>
        <text x="18" y="24" fill="#727169" font-size="12" font-family="monospace">github</text>
        <text x="100" y="24" fill="#DCD7BA" font-size="12" font-family="monospace">@aytordev</text>
<svg x="0" y="34" width="12" height="12" viewBox="0 0 12 12"><path d="M6 0a6 6 0 1 0 0 12A6 6 0 0 0 6 0Zm-.6 11.04c-2.16-.36-3.84-2.28-3.84-4.56 0-.12 0-.24.01-.36L4.2 8.76v.6c0 .66.54 1.2 1.2 1.2v.48Zm4.14-1.56A1.19 1.19 0 0 0 8.4 8.64h-.6V7.2c0-.33-.27-.6-.6-.6H3.6V5.4h1.2c.33 0 .6-.27.6-.6V3.6h1.2c.66 0 1.2-.54 1.2-1.2v-.25a4.81 4.81 0 0 1 1.74 7.33Z" fill="#727169"/></svg>
        <text x="18" y="44" fill="#727169" font-size="12" font-family="monospace">webpage</text>
        <text x="100" y="44" fill="#DCD7BA" font-size="12" font-family="monospace">aytor.dev</text>
<svg x="0" y="54" width="12" height="12" viewBox="0 0 12 12"><path d="M1.2 1.8h9.6c.66 0 1.2.54 1.2 1.2v6c0 .66-.54 1.2-1.2 1.2H1.2C.54 10.2 0 9.66 0 9V3c0-.66.54-1.2 1.2-1.2Zm0 1.2v.72L6 6.96l4.8-3.24V3H1.2Zm0 6h9.6V4.92L6 8.16.12 4.38l-.02.01L0 4.92l.1-.53L0 4.92V9c0 0 0 0 0 0h1.2Z" fill="#727169"/></svg>
        <text x="18" y="64" fill="#727169" font-size="12" font-family="monospace">email</text>
        <text x="100" y="64" fill="#DCD7BA" font-size="12" font-family="monospace">hello@aytor.dev</text>
    </g></g>
    </g>
  </g>
<g id="footer">
      <text x="790" y="990" text-anchor="end" fill="#727169" font-size="10" font-family="monospace">
        powered by @aytordev
      </text>
    </g>
</svg>